<svg width="80" height="80" viewBox="0 0 80 80" fill="none" xmlns="http://www.w3.org/2000/svg">
<path d="M2.93427 30.9467C2.93427 29.872 3.7124 29.3232 5.26903 29.2964L21.1851 29.0664L28.6177 42.4973C28.9792 43.3688 29.1626 43.969 29.1626 44.3008C29.1626 44.6079 28.9719 44.9104 28.5968 45.2042C28.2213 45.4976 27.8506 45.6443 27.4887 45.6443C27.4362 45.6443 27.1779 45.5175 26.7106 45.2603L24.6867 44.1476L20.3287 50.9784H39.2801V70.0889H21.5738C18.3047 70.0889 15.7091 68.4661 13.791 65.2159L2.9339 46.911C2.31118 45.8366 2 44.5587 2 43.0736C2 41.9221 2.25827 40.9245 2.77813 40.0802L6.43623 34.1705L3.67309 32.5206C3.17859 32.2402 2.93427 31.7139 2.93427 30.9467ZM4.76314 31.6762L8.11005 33.6329L3.82923 40.9241C3.44017 41.5653 3.24582 42.3575 3.24582 43.3032C3.24582 44.2519 3.54304 45.2107 4.14041 46.1814L13.7135 62.4525V61.6846C13.7135 59.7663 14.05 58.2695 14.7249 57.1956L24.1426 42.4973L26.9446 43.8404C27.2033 44.0979 27.384 44.2243 27.4887 44.2243C27.6449 44.1744 27.7228 44.0979 27.7228 43.994C27.7228 43.969 27.567 43.6622 27.2558 43.0732L20.562 30.332L4.7635 30.4856C4.50266 30.4856 4.37444 30.6395 4.37444 30.946C4.37444 31.2528 4.50229 31.4976 4.76314 31.6762ZM60.8778 14.5989L63.3683 13.2557C63.8353 13.0004 64.1972 12.8721 64.458 12.8721C64.925 12.8721 65.3923 13.0594 65.8589 13.4296C66.3258 13.7998 66.5591 14.2149 66.5591 14.6753C66.5591 14.9328 66.3901 15.4566 66.0536 16.2491L57.4538 29.7575L42.0822 28.4528C40.5252 28.2992 39.7471 27.8772 39.7471 27.1865C39.7471 26.5997 40.02 26.1777 40.5645 25.9198L42.7049 24.5006L38.9693 16.9019L29.2404 32.6745L12.7403 22.8503L22.0018 7.84629C23.6616 5.16004 26.0221 3.88212 29.0847 4.00853L51.6545 4.92967C53.4172 5.00682 54.7402 5.30239 55.6242 5.8124C56.4276 6.29996 57.1415 7.15517 57.7642 8.38346L60.8778 14.5989ZM28.7735 30.9467L38.3462 15.5591L35.3891 9.72623C33.9603 6.91356 31.6527 5.50488 28.462 5.50488C26.0996 5.50488 24.1286 6.78497 22.547 9.34227L14.4141 22.4671L28.7735 30.9467ZM22.2358 69.0533H37.9178V52.3983H19.3555L15.8532 57.9243C15.2811 58.8201 14.9975 60.177 14.9975 61.9921C14.9975 66.7007 17.4101 69.0533 22.2358 69.0533ZM42.3934 27.4165L56.7528 28.5292C62.4344 19.7029 65.2751 15.1364 65.2751 14.8292C65.2751 14.4206 65.0532 14.2153 64.6134 14.2153C64.3019 14.2153 64.069 14.2424 63.9136 14.292L60.3326 16.0956L56.597 8.80437C55.7134 7.11605 54.1458 6.22244 51.8885 6.11812L33.1311 5.31218C34.5048 6.0301 35.5695 7.16784 36.3222 8.72794L44.2997 24.961L41.6149 26.5337C41.3287 26.6873 41.1865 26.8297 41.1865 26.9557C41.1865 27.0079 41.5873 27.1611 42.3934 27.4165ZM52.5105 50.3648H60.8775L50.9157 34.6312L67.2594 24.5009L76.5984 39.1978C77.533 40.7082 78 42.1796 78 43.6111C78 44.5322 77.4162 46.1054 76.2487 48.3316L66.0529 67.7493C64.8853 70.002 63.0822 71.1263 60.6434 71.1263H53.6395V74.2729C53.6395 75.4244 53.0557 76 51.8882 76C51.3437 76 50.7599 75.528 50.1368 74.5801L41.2644 61.3789L49.0861 48.1009C49.6309 47.1551 50.2922 46.6813 51.0707 46.6813C52.0303 46.6813 52.5105 47.0399 52.5105 47.7557V50.3648ZM52.433 69.7046H60.8775C62.6148 69.7046 64.0021 68.7349 65.0414 66.7883L74.0307 49.9801C72.2658 51.082 70.592 51.6307 69.0107 51.6307H51.149V48.3305C51.149 48.0501 51.0711 47.9082 50.9157 47.9082C50.7849 48.0364 50.577 48.253 50.2926 48.5605L42.8603 61.3006L51.6549 74.4254C51.7324 74.5786 51.836 74.6551 51.9661 74.6551C52.2776 74.6551 52.433 74.4635 52.433 74.0795V69.7046ZM62.3176 50.3648H69.0107C70.6449 50.3648 72.2408 49.8022 73.7967 48.6761C75.6652 47.3467 76.5988 45.683 76.5988 43.6875C76.5988 42.3824 76.1186 40.9625 75.1593 39.4278L66.8707 26.1501L52.5891 34.9761L62.3176 50.3648Z" fill="black" stroke="black" stroke-width="3"/>
</svg>
