<svg width="78" height="76" viewBox="0 0 78 76" fill="none" xmlns="http://www.w3.org/2000/svg">
<path fill-rule="evenodd" clip-rule="evenodd" d="M53.0831 42.652C55.7172 40.6512 58.8141 39.5833 61.9821 39.5833H61.9865L61.9909 39.5833C66.2327 39.5985 70.2969 41.5207 73.2963 44.9303C76.2957 48.3398 77.9866 52.9599 78 57.7817L78 57.7867V57.7917C78 61.3929 77.0606 64.9133 75.3005 67.9077C73.5404 70.902 71.0388 73.2358 68.1119 74.614C65.185 75.9921 61.9644 76.3527 58.8572 75.6501C55.7501 74.9476 52.8959 73.2134 50.6558 70.6669C48.4157 68.1204 46.8901 64.876 46.2721 61.3439C45.654 57.8119 45.9712 54.1508 47.1836 50.8236C48.3959 47.4965 50.449 44.6527 53.0831 42.652ZM61.9778 45.9167C59.9132 45.9176 57.8951 46.614 56.1784 47.918C54.4605 49.2228 53.1216 51.0774 52.3309 53.2473C51.5402 55.4172 51.3334 57.8048 51.7364 60.1084C52.1395 62.4119 53.1344 64.5278 54.5954 66.1885C56.0564 67.8493 57.9177 68.9803 59.9441 69.4385C61.9706 69.8967 64.071 69.6615 65.9798 68.7627C67.8887 67.8639 69.5202 66.3419 70.668 64.389C71.8151 62.4376 72.4277 60.1436 72.4286 57.7968C72.4188 54.6495 71.3146 51.6342 69.3567 49.4086C67.3989 47.1831 64.7464 45.9279 61.9778 45.9167Z" fill="black"/>
<path fill-rule="evenodd" clip-rule="evenodd" d="M7.11882 42.652C9.75294 40.6512 12.8498 39.5833 16.0179 39.5833H16.0222L16.0266 39.5833C20.2684 39.5985 24.3326 41.5207 27.332 44.9303C30.3314 48.3398 32.0224 52.9599 32.0357 57.7817L32.0357 57.7867V57.7917C32.0357 61.3929 31.0963 64.9133 29.3362 67.9077C27.5762 70.902 25.0745 73.2358 22.1476 74.614C19.2208 75.9921 16.0001 76.3527 12.8929 75.6501C9.78577 74.9476 6.93167 73.2134 4.69153 70.6669C2.45139 68.1204 0.925839 64.876 0.307786 61.3439C-0.310267 57.8119 0.00694025 54.1508 1.21929 50.8236C2.43165 47.4965 4.4847 44.6527 7.11882 42.652ZM16.0135 45.9167C13.9489 45.9176 11.9308 46.614 10.2141 47.918C8.49623 49.2228 7.15729 51.0774 6.36662 53.2473C5.57596 55.4172 5.36908 57.8048 5.77216 60.1084C6.17524 62.4119 7.17016 64.5278 8.63112 66.1885C10.0921 67.8493 11.9535 68.9803 13.9799 69.4385C16.0063 69.8967 18.1067 69.6615 20.0155 68.7627C21.9244 67.8639 23.5559 66.3419 24.7038 64.389C25.8508 62.4376 26.4634 60.1436 26.4643 57.7968C26.4545 54.6495 25.3503 51.6342 23.3924 49.4086C21.4346 47.1831 18.7821 45.9279 16.0135 45.9167Z" fill="black"/>
<path fill-rule="evenodd" clip-rule="evenodd" d="M42.1064 11.1044C42.9979 11.2218 43.785 11.8203 44.2209 12.7122L50.3891 25.3334H58.5C60.0385 25.3334 61.2857 26.7511 61.2857 28.5C61.2857 30.2489 60.0385 31.6667 58.5 31.6667H48.75C47.7383 31.6667 46.8062 31.0432 46.3149 30.0379L41.2358 19.6453L32.1124 31.0534L40.5284 37.3317C41.3131 37.9171 41.7857 38.9123 41.7857 39.9792V57C41.7857 58.7489 40.5385 60.1667 39 60.1667C37.4615 60.1667 36.2143 58.7489 36.2143 57V41.6887L26.3288 34.3142C25.6474 33.8059 25.1961 32.984 25.0936 32.065C24.9911 31.146 25.2477 30.222 25.7959 29.5366L39.7245 12.1199C40.3282 11.365 41.2149 10.987 42.1064 11.1044Z" fill="black"/>
<path d="M50.1429 12.6669C50.8768 12.6698 51.6038 12.5073 52.2821 12.1888C52.9603 11.8703 53.5763 11.4021 54.0944 10.8113C54.6125 10.2205 55.0224 9.51887 55.3005 8.74688C55.5785 7.9749 55.7192 7.14791 55.7144 6.31374C55.7225 5.48374 55.5849 4.66023 55.3098 3.89136C55.0347 3.12249 54.6274 2.4237 54.1119 1.83584C53.5964 1.24799 52.9829 0.782866 52.3074 0.467681C51.6319 0.152496 50.9079 -0.00642951 50.1777 0.000199129C49.4461 -0.00239995 48.7212 0.158842 48.0443 0.474721C47.3675 0.790599 46.752 1.25493 46.2331 1.84119C45.1849 3.02521 44.5935 4.63404 44.5889 6.31374C44.5843 7.99344 45.1669 9.60644 46.2084 10.7979C47.25 11.9893 48.6653 12.6616 50.1429 12.6669Z" fill="black"/>
</svg>
