<svg width="81" height="80" viewBox="0 0 81 80" fill="none" xmlns="http://www.w3.org/2000/svg">
<g clip-path="url(#clip0_256_1311)">
<path d="M24.0291 67.9857C22.7043 68.3745 21.9454 69.7636 22.3341 71.0885C22.7228 72.4133 24.112 73.1722 25.4368 72.7835L24.0291 67.9857ZM48.6557 71.7885L48.4558 69.2965L48.6557 71.7885ZM63.0093 68.9808L63.996 71.2778L63.0093 68.9808ZM76.7244 57.9984L74.8847 56.3057L76.7244 57.9984ZM67.344 51.1267L65.6922 49.2501H65.6922L67.344 51.1267ZM61.0274 56.6868L62.6793 58.5633H62.6793L61.0274 56.6868ZM43.8711 56.6538C42.4904 56.6538 41.3711 57.7731 41.3711 59.1538C41.3711 60.5346 42.4904 61.6538 43.8711 61.6538V56.6538ZM75.266 50.4362L74.0007 52.5924L75.266 50.4362ZM29.5876 48.5941L30.5947 50.8823L30.5947 50.8823L29.5876 48.5941ZM46.7559 47.2118L46.1723 49.6427L46.7559 47.2118ZM53.4603 48.8213L52.8767 51.2522L53.4603 48.8213ZM55.5846 55.8624L53.9328 53.9859H53.9328L55.5846 55.8624ZM50.1935 57.2773C49.1571 58.1896 49.0565 59.7693 49.9688 60.8057C50.8811 61.8421 52.4608 61.9427 53.4972 61.0304L50.1935 57.2773ZM25.4368 72.7835C26.1961 72.5607 27.4281 72.4848 29.2114 72.5967C30.9473 72.7057 32.9494 72.9713 35.1558 73.2763C39.4399 73.8686 44.5348 74.6269 48.8555 74.2805L48.4558 69.2965C44.8022 69.5894 40.3281 68.9439 35.8406 68.3234C33.6612 68.0221 31.4768 67.7291 29.5246 67.6066C27.6199 67.487 25.6622 67.5066 24.0291 67.9857L25.4368 72.7835ZM48.8555 74.2805C55.0927 73.7803 57.8427 73.921 63.996 71.2778L62.0225 66.6837C56.7595 68.9445 54.8694 68.7822 48.4558 69.2965L48.8555 74.2805ZM63.996 71.2778C69.5029 68.9123 75.1067 63.4489 78.5641 59.6912L74.8847 56.3057C71.4302 60.0602 66.4534 64.7804 62.0225 66.6837L63.996 71.2778ZM65.6922 49.2501L59.3756 54.8102L62.6793 58.5633L68.9958 53.0033L65.6922 49.2501ZM54.2611 56.6538H43.8711V61.6538H54.2611V56.6538ZM59.3756 54.8102C58.0672 55.9619 56.2316 56.6538 54.2611 56.6538V61.6538C57.3663 61.6538 60.3986 60.5709 62.6793 58.5633L59.3756 54.8102ZM76.5313 48.28C73.1412 46.2906 68.6449 46.651 65.6922 49.2501L68.9958 53.0033C70.2755 51.8768 72.4107 51.6593 74.0007 52.5924L76.5313 48.28ZM78.5641 59.6912C82.0183 55.9371 80.5842 50.6584 76.5313 48.28L74.0007 52.5924C75.7667 53.6287 75.832 55.2761 74.8847 56.3057L78.5641 59.6912ZM7.18969 47.6154H19.9484V42.6154H7.18969V47.6154ZM20.6381 47.9231V73.1923H25.6381V47.9231H20.6381ZM19.9484 73.5H7.18969V78.5H19.9484V73.5ZM6.5 73.1923V47.9231H1.5V73.1923H6.5ZM7.18969 73.5C6.90091 73.5 6.6949 73.3969 6.58606 73.3011C6.53326 73.2546 6.51128 73.2175 6.50402 73.2024C6.50218 73.1986 6.50113 73.1959 6.50058 73.1943C6.50029 73.1935 6.50012 73.193 6.50001 73.1926C6.49991 73.1923 6.49987 73.1921 6.49987 73.1921C6.49987 73.1921 6.49989 73.1922 6.49992 73.1923C6.49995 73.1925 6.49997 73.1927 6.49999 73.1928C6.50004 73.1933 6.5 73.1932 6.5 73.1923H1.5C1.5 76.4138 4.35655 78.5 7.18969 78.5V73.5ZM20.6381 73.1923C20.6381 73.1932 20.6381 73.1933 20.6381 73.1928C20.6382 73.1927 20.6382 73.1925 20.6382 73.1923C20.6382 73.1922 20.6383 73.1921 20.6383 73.1921C20.6383 73.1921 20.6382 73.1923 20.6381 73.1926C20.638 73.193 20.6378 73.1935 20.6376 73.1943C20.637 73.1959 20.636 73.1986 20.6341 73.2024C20.6269 73.2175 20.6049 73.2546 20.5521 73.3011C20.4432 73.3969 20.2372 73.5 19.9484 73.5V78.5C22.7816 78.5 25.6381 76.4138 25.6381 73.1923H20.6381ZM19.9484 47.6154C20.2372 47.6154 20.4432 47.7185 20.5521 47.8143C20.6049 47.8608 20.6269 47.8979 20.6341 47.913C20.636 47.9168 20.637 47.9195 20.6376 47.9211C20.6378 47.9219 20.638 47.9224 20.6381 47.9228C20.6382 47.9231 20.6383 47.9233 20.6383 47.9233C20.6383 47.9233 20.6382 47.9232 20.6382 47.9231C20.6382 47.9229 20.6382 47.9227 20.6381 47.9225C20.6381 47.9221 20.6381 47.9222 20.6381 47.9231H25.6381C25.6381 44.7016 22.7816 42.6154 19.9484 42.6154V47.6154ZM7.18969 42.6154C4.35654 42.6154 1.5 44.7016 1.5 47.9231H6.5C6.5 47.9222 6.50004 47.9221 6.49999 47.9225C6.49997 47.9227 6.49995 47.9229 6.49992 47.9231C6.49989 47.9232 6.49987 47.9233 6.49987 47.9233C6.49987 47.9233 6.49991 47.9231 6.50002 47.9228C6.50012 47.9224 6.50029 47.9219 6.50058 47.9211C6.50113 47.9195 6.50218 47.9168 6.50402 47.913C6.51128 47.8979 6.53326 47.8608 6.58606 47.8143C6.6949 47.7185 6.90091 47.6154 7.18969 47.6154V42.6154ZM25.7401 53.019L30.5947 50.8823L28.5806 46.306L23.7259 48.4426L25.7401 53.019ZM39.5729 49.0192H40.881V44.0192H39.5729V49.0192ZM46.1723 49.6427L52.8767 51.2522L54.0439 46.3903L47.3394 44.7808L46.1723 49.6427ZM53.9328 53.9859L50.1935 57.2773L53.4972 61.0304L57.2364 57.739L53.9328 53.9859ZM52.8767 51.2522C53.8388 51.4832 54.2918 52.0602 54.4322 52.5255C54.5631 52.9594 54.4952 53.4907 53.9328 53.9859L57.2364 57.739C59.2716 55.9475 59.9137 53.3837 59.2191 51.0813C58.534 48.8105 56.626 47.0102 54.0439 46.3903L52.8767 51.2522ZM40.881 49.0192C42.6706 49.0192 44.4503 49.2293 46.1723 49.6427L47.3394 44.7808C45.2322 44.2749 43.0606 44.0192 40.881 44.0192V49.0192ZM30.5947 50.8823C33.3702 49.6608 36.4451 49.0192 39.5729 49.0192V44.0192C35.7682 44.0192 32.0058 44.7985 28.5806 46.306L30.5947 50.8823ZM62.1041 25.4615C62.1041 29.9933 57.8203 34.1923 51.8453 34.1923V39.1923C59.9633 39.1923 67.1041 33.335 67.1041 25.4615H62.1041ZM51.8453 34.1923C45.8704 34.1923 41.5866 29.9933 41.5866 25.4615H36.5866C36.5866 33.3349 43.7273 39.1923 51.8453 39.1923V34.1923ZM41.5866 25.4615C41.5866 20.9298 45.8704 16.7308 51.8453 16.7308V11.7308C43.7273 11.7308 36.5866 17.5881 36.5866 25.4615H41.5866ZM51.8453 16.7308C57.8203 16.7308 62.1041 20.9298 62.1041 25.4615H67.1041C67.1041 17.5881 59.9633 11.7308 51.8453 11.7308V16.7308ZM39.0866 22.9615C33.1116 22.9615 28.8278 18.7625 28.8278 14.2308H23.8278C23.8278 22.1042 30.9686 27.9615 39.0866 27.9615V22.9615ZM28.8278 14.2308C28.8278 9.69901 33.1116 5.5 39.0866 5.5V0.5C30.9686 0.5 23.8278 6.35736 23.8278 14.2308H28.8278ZM39.0866 5.5C45.0615 5.5 49.3453 9.69901 49.3453 14.2308H54.3453C54.3453 6.35736 47.2046 0.5 39.0866 0.5V5.5Z" fill="black"/>
</g>
<defs>
<clipPath id="clip0_256_1311">
<rect width="80" height="80" fill="white" transform="translate(0.5)"/>
</clipPath>
</defs>
</svg>
